<svg width="24" height="24" viewBox="0 0 24 24" fill="none" xmlns="http://www.w3.org/2000/svg">
    <circle opacity="0.8" cx="12" cy="12" r="12" fill="#2C2E30" />
    <path
        d="M10.2503 7.03087C10.5915 6.416 11.2473 5.99984 12.0003 5.99984C13.1049 5.99984 14.0003 6.89527 14.0003 7.99984V10.7809L15.2587 12.0393C15.3078 11.8117 15.3337 11.5754 15.3337 11.3332V7.99984C15.3337 6.15889 13.8413 4.6665 12.0003 4.6665C10.8805 4.6665 9.8896 5.21873 9.28517 6.06573L10.2503 7.03087Z"
        fill="white" />
    <path
        d="M10.0003 8.6665L8.72283 7.38901C8.68616 7.58703 8.66699 7.7912 8.66699 7.99984V11.3332C8.66699 13.1741 10.1594 14.6665 12.0003 14.6665C13.0908 14.6665 14.059 14.1429 14.6671 13.3333L13.7082 12.3744C13.3569 12.9494 12.7235 13.3332 12.0003 13.3332C10.8958 13.3332 10.0003 12.4377 10.0003 11.3332V8.6665Z"
        fill="white" />
    <path fill-rule="evenodd" clip-rule="evenodd"
        d="M15.6356 14.3028C15.5862 14.3351 15.5402 14.3745 15.4992 14.4211C15.0619 14.918 14.5236 15.3159 13.9203 15.5882C13.3169 15.8605 12.6624 16.001 12.0005 16.0002H11.9989C11.3369 16.001 10.6824 15.8605 10.0791 15.5882C9.47576 15.3159 8.93746 14.918 8.50015 14.4211C8.2569 14.1447 7.83565 14.1178 7.55925 14.361C7.28285 14.6043 7.25598 15.0255 7.49922 15.3019C8.06184 15.9412 8.75439 16.4531 9.53061 16.8035C10.3066 17.1537 11.1483 17.3344 11.9997 17.3335C12.851 17.3344 13.6928 17.1537 14.4688 16.8035C15.245 16.4531 15.9375 15.9412 16.5001 15.3019C16.5216 15.2775 16.541 15.2519 16.5583 15.2255L15.6356 14.3028ZM11.9997 17.3335L12.0005 17.3335L11.9997 16.6668L11.9989 17.3335L11.9997 17.3335Z"
        fill="white" />
    <path fill-rule="evenodd" clip-rule="evenodd"
        d="M11.9997 16C12.3679 16 12.6663 16.2985 12.6663 16.6667V18.6667C12.6663 19.0349 12.3679 19.3333 11.9997 19.3333C11.6315 19.3333 11.333 19.0349 11.333 18.6667V16.6667C11.333 16.2985 11.6315 16 11.9997 16Z"
        fill="white" />
    <path fill-rule="evenodd" clip-rule="evenodd"
        d="M10 18.6667C10 18.2985 10.2985 18 10.6667 18H13.3333C13.7015 18 14 18.2985 14 18.6667C14 19.0349 13.7015 19.3333 13.3333 19.3333H10.6667C10.2985 19.3333 10 19.0349 10 18.6667Z"
        fill="white" />
    <path fill-rule="evenodd" clip-rule="evenodd"
        d="M6.19559 5.8049C6.45594 5.54455 6.87805 5.54455 7.1384 5.8049L17.8051 16.4716C18.0654 16.7319 18.0654 17.154 17.8051 17.4144C17.5447 17.6747 17.1226 17.6747 16.8623 17.4144L6.19559 6.74771C5.93524 6.48736 5.93524 6.06525 6.19559 5.8049Z"
        fill="white" />
</svg>
